<?xml version="1.0" encoding="iso-8859-1"?>
<svg version="1.1" xmlns="http://www.w3.org/2000/svg" xmlns:xlink="http://www.w3.org/1999/xlink" x="0px" y="0px" viewBox="0 0 512 512">
  <circle style="fill:#4da1cb;" cx="256" cy="256" r="256"/>
  <path style="fill:#2e799e;" d="M238.078,103.708L223.148,138.2l-12.541,33.325l-73.268-6.03l-18.851,38.214l31.206,56.315
  	l-18.492,22.514l-12.714,57.94l169.534,169.534c115.776-14.448,207.534-106.201,221.987-221.975l-116.51-116.512l-30.594-12.041
  	h-29.082l-47.931-50.528l-22.707-5.81L238.078,103.708z"/>
  <path style="fill:#b8c8d8;" d="M256,417.616c-20.109,0-38.321-17.839-51.278-50.229c-11.957-29.893-18.541-69.449-18.541-111.387
  	s6.584-81.494,18.541-111.387c12.957-32.39,31.168-50.229,51.278-50.229s38.321,17.839,51.278,50.229
  	c11.957,29.893,18.541,69.449,18.541,111.387s-6.584,81.494-18.541,111.387C294.322,399.777,276.109,417.616,256,417.616z
  	 M256,111.623c-24.869,0-52.579,59.294-52.579,144.377S231.131,400.377,256,400.377S308.579,341.083,308.579,256
  	S280.869,111.623,256,111.623z"/>
  <path style="fill:#a3b3c3;" d="M307.278,144.613c-12.955-32.39-31.168-50.228-51.276-50.229v17.239
  	c24.867,0.002,52.577,59.294,52.577,144.377s-27.71,144.375-52.577,144.377v17.239c20.109,0,38.321-17.839,51.276-50.229
  	c11.957-29.893,18.541-69.449,18.541-111.387S319.235,174.506,307.278,144.613z"/>
  <path style="fill:#cddde7;" d="M347.465,357.681c-6.401,0-13.293-0.522-20.64-1.581c-31.865-4.591-69.417-18.668-105.734-39.636
  	c-36.318-20.97-67.284-46.451-87.192-71.751c-21.575-27.415-27.917-52.107-17.861-69.522s34.611-24.267,69.137-19.292
  	c31.865,4.591,69.417,18.668,105.734,39.636c36.318,20.97,67.284,46.451,87.192,71.751c21.575,27.415,27.917,52.107,17.861,69.522
  	C388.048,350.518,371.145,357.681,347.465,357.681z M164.205,171.525c-16.836,0-28.593,4.237-33.239,12.286
  	c-6.201,10.738-0.193,29.053,16.481,50.243c18.584,23.617,47.8,47.583,82.265,67.482c34.464,19.899,69.827,33.218,99.573,37.502
  	c26.688,3.848,45.551-0.109,51.752-10.849c6.201-10.738,0.193-29.053-16.481-50.243c-18.584-23.618-47.8-47.583-82.265-67.482
  	s-69.827-33.218-99.573-37.502C176.03,171.998,169.834,171.525,164.205,171.525z"/>
  <path style="fill:#b8c8d8;" d="M378.101,267.286c-19.908-25.3-50.874-50.781-87.192-71.751
  	c-11.586-6.689-23.295-12.669-34.907-17.87v18.975c8.751,4.16,17.548,8.778,26.288,13.826
  	c34.464,19.899,63.679,43.863,82.265,67.482c16.674,21.19,22.68,39.503,16.481,50.243c-6.201,10.74-25.062,14.696-51.752,10.849
  	c-22.2-3.198-47.532-11.433-73.281-23.674v18.975c24.788,11.105,49.124,18.639,70.823,21.764c7.347,1.058,14.239,1.581,20.64,1.581
  	c23.68,0,40.582-7.163,48.499-20.873C406.018,319.391,399.675,294.702,378.101,267.286z"/>
  <path style="fill:#e7f5ff;" d="M164.535,357.681c-23.681,0-40.582-7.161-48.499-20.873c-10.056-17.417-3.712-42.106,17.861-69.522
  	c19.908-25.3,50.874-50.781,87.192-71.751c36.318-20.968,73.869-35.045,105.734-39.636c34.528-4.97,59.082,1.876,69.137,19.292
  	c10.056,17.417,3.712,42.106-17.861,69.522c-19.908,25.3-50.874,50.781-87.192,71.751c-36.318,20.968-73.869,35.045-105.734,39.636
  	C177.829,357.159,170.934,357.681,164.535,357.681z M347.795,171.525c-5.63,0-11.823,0.472-18.511,1.438
  	c-29.746,4.284-65.108,17.603-99.573,37.502s-63.679,43.863-82.265,67.481c-16.674,21.19-22.68,39.503-16.481,50.243
  	c6.201,10.74,25.066,14.698,51.752,10.849c29.746-4.284,65.108-17.603,99.573-37.502s63.679-43.863,82.265-67.482
  	c16.674-21.19,22.68-39.503,16.481-50.243C376.387,175.763,364.628,171.525,347.795,171.525z"/>
  <path style="fill:#cddde7;" d="M395.962,175.192c-10.056-17.418-34.609-24.262-69.137-19.292
  	c-21.699,3.125-46.037,10.661-70.823,21.764v18.975c25.75-12.243,51.081-20.477,73.281-23.674
  	c6.689-0.965,12.883-1.438,18.511-1.438c16.834,0,28.593,4.237,33.239,12.286c6.201,10.738,0.193,29.053-16.481,50.243
  	c-18.584,23.617-47.8,47.583-82.265,67.482c-8.74,5.046-17.539,9.666-26.288,13.826v18.975c11.612-5.203,23.323-11.181,34.907-17.87
  	c36.318-20.97,67.284-46.451,87.192-71.751C399.675,217.298,406.018,192.609,395.962,175.192z"/>
  <path style="fill:#fbc251;" d="M251.395,301.892c-1.438,0-2.898-0.328-4.268-1.021c-4.674-2.36-6.549-8.064-4.189-12.738
  	l11.443-22.652h-12.173c-3.293,0-6.351-1.708-8.077-4.513c-1.726-2.805-1.872-6.303-0.388-9.242l18.389-36.409
  	c2.36-4.675,8.064-6.547,12.738-4.189c4.673,2.36,6.549,8.064,4.189,12.738l-11.442,22.652h12.172c3.293,0,6.351,1.708,8.077,4.513
  	s1.872,6.303,0.388,9.242l-18.389,36.409C258.196,299.987,254.859,301.892,251.395,301.892z"/>
  <path style="fill:#f9b11f;" d="M277.868,251.032c-1.726-2.805-4.782-4.513-8.077-4.513h-12.172l11.442-22.654
  	c2.36-4.674,0.484-10.378-4.189-12.738c-2.91-1.469-6.218-1.296-8.871,0.171v89.383c1.603-0.89,2.975-2.238,3.863-3.998
	l18.389-36.409C279.74,257.334,279.593,253.836,277.868,251.032z"/>
</svg>
